<svg xmlns="http://www.w3.org/2000/svg" width="960" height="600" viewBox="0 0 960 600" role="img"><title>Reviewed key matches by format: S09 12,21,14; S14 14,11,11 out of 25.</title><rect width="960" height="600" fill="#ffffff"/><text x="36" y="46" font-family="Arial, sans-serif" font-size="28" font-weight="600" fill="#251f21">Wrong-key matches on the hard bank</text><text x="36" y="78" font-family="Arial, sans-serif" font-size="17" font-weight="400" fill="#585254">Same bank, different providers/settings. Descriptive, not a causal comparison.</text><rect x="36" y="102" width="16" height="16" fill="#251f21"/><text x="62" y="116" font-family="Arial, sans-serif" font-size="17" font-weight="400" fill="#251f21">Gemini 3.5 Flash Lite</text><rect x="355" y="102" width="16" height="16" fill="#73a89a"/><text x="381" y="116" font-family="Arial, sans-serif" font-size="17" font-weight="400" fill="#251f21">GPT-OSS 120B</text><line x1="600" y1="110" x2="640" y2="110" stroke="#c2410c" stroke-width="2.5"/><line x1="600" y1="102" x2="600" y2="118" stroke="#c2410c" stroke-width="2.5"/><line x1="640" y1="102" x2="640" y2="118" stroke="#c2410c" stroke-width="2.5"/><text x="650" y="116" font-family="Arial, sans-serif" font-size="17" font-weight="400" fill="#251f21">95% range</text><text x="36" y="144" font-family="Arial, sans-serif" font-size="15" font-weight="600" fill="#251f21">Output format</text><line x1="230" y1="151" x2="230" y2="426" stroke="#eae9ea"/><text x="225" y="450" font-family="Arial, sans-serif" font-size="15" font-weight="400" fill="#585254">0</text><line x1="340" y1="151" x2="340" y2="426" stroke="#eae9ea"/><text x="335" y="450" font-family="Arial, sans-serif" font-size="15" font-weight="400" fill="#585254">5</text><line x1="450" y1="151" x2="450" y2="426" stroke="#eae9ea"/><text x="445" y="450" font-family="Arial, sans-serif" font-size="15" font-weight="400" fill="#585254">10</text><line x1="560" y1="151" x2="560" y2="426" stroke="#eae9ea"/><text x="555" y="450" font-family="Arial, sans-serif" font-size="15" font-weight="400" fill="#585254">15</text><line x1="670" y1="151" x2="670" y2="426" stroke="#eae9ea"/><text x="665" y="450" font-family="Arial, sans-serif" font-size="15" font-weight="400" fill="#585254">20</text><line x1="780" y1="151" x2="780" y2="426" stroke="#eae9ea"/><text x="775" y="450" font-family="Arial, sans-serif" font-size="15" font-weight="400" fill="#585254">25</text><text x="36" y="201" font-family="Arial, sans-serif" font-size="20" font-weight="600" fill="#251f21">Reason-first</text><rect x="230" y="173" width="264" height="23" fill="#251f21"/><g stroke="#ffffff" stroke-width="5"><line x1="395.2" y1="184.5" x2="595.8" y2="184.5"/></g><g stroke="#c2410c" stroke-width="2.5"><line x1="395.2" y1="184.5" x2="595.8" y2="184.5"/><line x1="395.2" y1="176.5" x2="395.2" y2="192.5"/><line x1="595.8" y1="176.5" x2="595.8" y2="192.5"/></g><text x="605.7581574789494" y="192" font-family="Arial, sans-serif" font-size="17" font-weight="600" fill="#251f21">12/25</text><rect x="230" y="203" width="308" height="23" fill="#73a89a"/><g stroke="#ffffff" stroke-width="5"><line x1="433.9" y1="214.5" x2="633.3" y2="214.5"/></g><g stroke="#c2410c" stroke-width="2.5"><line x1="433.9" y1="214.5" x2="633.3" y2="214.5"/><line x1="433.9" y1="206.5" x2="433.9" y2="222.5"/><line x1="633.3" y1="206.5" x2="633.3" y2="222.5"/></g><text x="643.3389867772601" y="222" font-family="Arial, sans-serif" font-size="17" font-weight="600" fill="#251f21">14/25</text><text x="36" y="287" font-family="Arial, sans-serif" font-size="20" font-weight="600" fill="#251f21">Answer-first</text><rect x="230" y="259" width="462" height="23" fill="#251f21"/><g stroke="#ffffff" stroke-width="5"><line x1="589.4" y1="270.5" x2="744.8" y2="270.5"/></g><g stroke="#c2410c" stroke-width="2.5"><line x1="589.4" y1="270.5" x2="744.8" y2="270.5"/><line x1="589.4" y1="262.5" x2="589.4" y2="278.5"/><line x1="744.8" y1="262.5" x2="744.8" y2="278.5"/></g><text x="754.7810172334592" y="278" font-family="Arial, sans-serif" font-size="17" font-weight="600" fill="#251f21">21/25</text><rect x="230" y="289" width="242" height="23" fill="#73a89a"/><g stroke="#ffffff" stroke-width="5"><line x1="376.7" y1="300.5" x2="576.1" y2="300.5"/></g><g stroke="#c2410c" stroke-width="2.5"><line x1="376.7" y1="300.5" x2="576.1" y2="300.5"/><line x1="376.7" y1="292.5" x2="376.7" y2="308.5"/><line x1="576.1" y1="292.5" x2="576.1" y2="308.5"/></g><text x="586.1296754594459" y="308" font-family="Arial, sans-serif" font-size="17" font-weight="600" fill="#251f21">11/25</text><text x="36" y="373" font-family="Arial, sans-serif" font-size="20" font-weight="600" fill="#251f21">Combined</text><rect x="230" y="345" width="308" height="23" fill="#251f21"/><g stroke="#ffffff" stroke-width="5"><line x1="433.9" y1="356.5" x2="633.3" y2="356.5"/></g><g stroke="#c2410c" stroke-width="2.5"><line x1="433.9" y1="356.5" x2="633.3" y2="356.5"/><line x1="433.9" y1="348.5" x2="433.9" y2="364.5"/><line x1="633.3" y1="348.5" x2="633.3" y2="364.5"/></g><text x="643.3389867772601" y="364" font-family="Arial, sans-serif" font-size="17" font-weight="600" fill="#251f21">14/25</text><rect x="230" y="375" width="242" height="23" fill="#73a89a"/><g stroke="#ffffff" stroke-width="5"><line x1="376.7" y1="386.5" x2="576.1" y2="386.5"/></g><g stroke="#c2410c" stroke-width="2.5"><line x1="376.7" y1="386.5" x2="576.1" y2="386.5"/><line x1="376.7" y1="378.5" x2="376.7" y2="394.5"/><line x1="576.1" y1="378.5" x2="576.1" y2="394.5"/></g><text x="586.1296754594459" y="394" font-family="Arial, sans-serif" font-size="17" font-weight="600" fill="#251f21">11/25</text><text x="230" y="477" font-family="Arial, sans-serif" font-size="17" font-weight="600" fill="#251f21">Wrong-key matches (count out of 25)</text><text x="36" y="510" font-family="Arial, sans-serif" font-size="17" font-weight="600" fill="#251f21">S14 combined: reviewed 11/25; raw strict parser 9/25.</text><text x="36" y="540" font-family="Arial, sans-serif" font-size="17" font-weight="400" fill="#585254">One saved sample per question and format; each arm has 25 answers.</text><text x="36" y="568" font-family="Arial, sans-serif" font-size="16" font-weight="400" fill="#585254">95% ranges (Wilson) treat answers as independent, so they are too narrow.</text></svg>
